<?xml version="1.0" encoding="utf-8"?>
<!-- Generator: Adobe Illustrator 25.0.0, SVG Export Plug-In . SVG Version: 6.00 Build 0)  -->
<svg version="1.1" id="Layer_1" xmlns="http://www.w3.org/2000/svg" xmlns:xlink="http://www.w3.org/1999/xlink" x="0px" y="0px"
	 viewBox="0 0 50 50" style="enable-background:new 0 0 50 50;" xml:space="preserve">
<style type="text/css">
	.st0{clip-path:url(#SVGID_2_);fill-rule:evenodd;clip-rule:evenodd;fill:#EB2127;}
	.st1{clip-path:url(#SVGID_2_);fill:#24428D;}
</style>
<g>
	<g>
		<defs>
			<rect id="SVGID_1_" x="0.97" y="4.26" width="48.05" height="41.48"/>
		</defs>
		<clipPath id="SVGID_2_">
			<use xlink:href="#SVGID_1_"  style="overflow:visible;"/>
		</clipPath>
		<path class="st0" d="M34.54,9.11c5.25,0,9.5,4.26,9.5,9.5c0,8.7-7.96,17.39-16.59,26.09c-0.07,0.07-0.07,0.17,0,0.24
			c0.18,0.18,0.35,0.35,0.53,0.54c0.07,0.07,0.18,0.07,0.24,0c10.29-10.3,20.54-20.59,20.54-30.88c0-5.71-4.63-10.33-10.33-10.33
			c-4.61,0-7.17,2.06-9.5,6.19c-0.04,0.07-0.02,0.16,0.03,0.21c0.06,0.05,0.15,0.06,0.22,0.01C30.61,9.63,32.32,9.11,34.54,9.11z"/>
		<path class="st0" d="M27.92,11.64c-2.52-4.92-5.1-7.38-10.14-7.38c-5.1,0-9.34,3.7-10.18,8.56c-0.01,0.08,0.02,0.16,0.1,0.19
			c0.07,0.03,0.15,0.01,0.2-0.05c1.74-2.34,4.51-3.85,7.64-3.85c4.65,0,7.03,2.28,9.35,6.83c0.03,0.06,0.09,0.1,0.15,0.1
			s0.12-0.03,0.15-0.1c0.86-1.67,1.72-3.04,2.7-4.1C27.94,11.78,27.95,11.7,27.92,11.64z"/>
		<path class="st1" d="M1.82,24.47c-0.47,0-0.85-0.38-0.85-0.85c0-0.47,0.38-0.85,0.85-0.85h13.76l3.35-8.63
			c0.17-0.43,0.66-0.65,1.1-0.48c0.29,0.11,0.48,0.36,0.53,0.65l2.74,15.67l4.05-10.76c0.17-0.44,0.65-0.66,1.09-0.5
			c0.23,0.09,0.4,0.27,0.49,0.48l1.64,3.58h8.13c0.47,0,0.85,0.38,0.85,0.85c0,0.47-0.38,0.85-0.85,0.85h-8.67
			c-0.32,0-0.63-0.19-0.77-0.5l-1.04-2.27l-4.42,11.72c-0.09,0.3-0.34,0.53-0.67,0.59c-0.46,0.08-0.9-0.23-0.98-0.69l-2.75-15.73
			l-2.43,6.27c-0.11,0.35-0.43,0.61-0.82,0.61H1.82z"/>
	</g>
</g>
</svg>
