<?xml version="1.0" encoding="utf-8"?>
<!-- Generator: Adobe Illustrator 25.0.0, SVG Export Plug-In . SVG Version: 6.00 Build 0)  -->
<svg version="1.1" id="Layer_1" xmlns="http://www.w3.org/2000/svg" xmlns:xlink="http://www.w3.org/1999/xlink" x="0px" y="0px"
	 viewBox="0 0 243.62 60.41" style="enable-background:new 0 0 243.62 60.41;" xml:space="preserve">
<style type="text/css">
	.st0{clip-path:url(#SVGID_2_);fill-rule:evenodd;clip-rule:evenodd;fill:#EB2127;}
	.st1{clip-path:url(#SVGID_2_);fill:#24428D;}
	.st2{fill:#EB2127;}
	.st3{fill:#24428D;}
</style>
<g>
	<g>
		<defs>
			<rect id="SVGID_1_" x="187.18" y="1.37" width="55.58" height="48.14"/>
		</defs>
		<clipPath id="SVGID_2_">
			<use xlink:href="#SVGID_1_"  style="overflow:visible;"/>
		</clipPath>
		<path class="st0" d="M226.27,7.01c6.11,0,11.06,4.96,11.06,11.06c0,10.13-9.27,20.25-19.32,30.38c-0.08,0.08-0.08,0.2,0,0.28
			c0.21,0.21,0.41,0.41,0.62,0.62c0.08,0.08,0.21,0.08,0.28,0c11.98-11.99,23.92-23.97,23.92-35.95c0-6.64-5.39-12.03-12.03-12.03
			c-5.37,0-8.35,2.4-11.06,7.2c-0.04,0.08-0.03,0.18,0.04,0.24c0.07,0.06,0.17,0.07,0.25,0.01C221.69,7.62,223.67,7.01,226.27,7.01z
			"/>
		<path class="st0" d="M218.55,9.96c-2.94-5.73-5.94-8.59-11.81-8.59c-5.94,0-10.88,4.31-11.85,9.97c-0.02,0.09,0.03,0.18,0.12,0.22
			c0.08,0.04,0.18,0.01,0.23-0.06c2.02-2.72,5.25-4.49,8.9-4.49c5.41,0,8.18,2.65,10.89,7.95c0.03,0.07,0.1,0.11,0.18,0.11
			c0.08,0,0.14-0.04,0.18-0.11c1-1.95,2-3.54,3.14-4.77C218.58,10.12,218.59,10.03,218.55,9.96z"/>
		<path class="st1" d="M188.17,24.9c-0.55,0-0.99-0.44-0.99-0.99c0-0.55,0.45-0.99,0.99-0.99h16.02l3.9-10.05
			c0.2-0.51,0.77-0.76,1.28-0.56c0.33,0.13,0.56,0.42,0.62,0.75l3.19,18.24l4.72-12.53c0.19-0.51,0.76-0.77,1.27-0.58
			c0.27,0.1,0.47,0.31,0.57,0.56l1.91,4.17h9.47c0.55,0,0.99,0.45,0.99,0.99c0,0.55-0.45,0.99-0.99,0.99h-10.1
			c-0.37,0-0.73-0.22-0.9-0.58l-1.21-2.64l-5.14,13.65c-0.11,0.35-0.4,0.62-0.78,0.68c-0.53,0.09-1.05-0.27-1.14-0.8l-3.21-18.31
			l-2.83,7.3c-0.12,0.41-0.5,0.71-0.95,0.71H188.17z"/>
	</g>
	<g>
		<path class="st2" d="M6.25,42.08c-1.73,0-3.04-0.4-3.93-1.2c-0.89-0.8-1.34-2.06-1.34-3.79V11.14h5.47v24.33
			c0,0.76,0.14,1.29,0.43,1.6c0.28,0.31,0.76,0.47,1.44,0.47h1.46v4.54H6.25z"/>
	</g>
	<g>
		<path class="st2" d="M17.97,41.03c-1.76-1-3.13-2.41-4.12-4.22c-0.99-1.81-1.48-3.89-1.48-6.24c0-2.27,0.49-4.3,1.48-6.08
			c0.99-1.78,2.36-3.17,4.12-4.16c1.76-0.99,3.77-1.48,6.04-1.48s4.29,0.5,6.06,1.5c1.77,1,3.15,2.39,4.14,4.16
			c0.99,1.77,1.48,3.79,1.48,6.06c0,2.35-0.49,4.43-1.46,6.24c-0.97,1.81-2.35,3.22-4.12,4.22c-1.77,1-3.81,1.5-6.1,1.5
			C21.74,42.53,19.72,42.03,17.97,41.03z M28.35,35.8c1.11-1.35,1.66-3.1,1.66-5.23c0-2.05-0.55-3.74-1.66-5.05
			c-1.11-1.31-2.55-1.97-4.34-1.97c-1.16,0-2.2,0.3-3.12,0.89c-0.92,0.6-1.64,1.43-2.15,2.49c-0.51,1.07-0.77,2.28-0.77,3.63
			c0,2.16,0.56,3.91,1.68,5.25c1.12,1.34,2.58,2.01,4.36,2.01S27.24,37.15,28.35,35.8z"/>
	</g>
	<g>
		<path class="st2" d="M50.49,42.08h-4.34l-8.39-22.75h5.84l4.7,14.35l4.78-14.35h5.84L50.49,42.08z"/>
	</g>
	<g>
		<path class="st2" d="M66.46,41.03c-1.76-1-3.12-2.39-4.08-4.16c-0.96-1.77-1.44-3.78-1.44-6.02c0-2.08,0.43-4.03,1.28-5.86
			c0.85-1.82,2.13-3.3,3.85-4.44c1.72-1.14,3.82-1.7,6.31-1.7c2.05,0,3.95,0.43,5.68,1.28c1.73,0.85,3.12,2.16,4.18,3.93
			c1.05,1.77,1.58,3.97,1.58,6.59v1.18H66.62c0.08,0.95,0.36,1.84,0.85,2.68c0.54,1.05,1.26,1.87,2.17,2.45
			c0.91,0.58,1.94,0.87,3.1,0.87c1.24,0,2.31-0.32,3.2-0.95c0.89-0.63,1.53-1.45,1.91-2.45h5.6c-0.73,2.41-2.01,4.36-3.85,5.86
			c-1.84,1.5-4.19,2.25-7.06,2.25C70.24,42.53,68.22,42.03,66.46,41.03z M78.22,27.73c-0.11-0.86-0.39-1.57-0.85-2.11
			c-0.51-0.78-1.19-1.39-2.03-1.8c-0.84-0.42-1.77-0.63-2.8-0.63c-1.03,0-1.95,0.2-2.78,0.61c-0.83,0.41-1.49,1.01-2.01,1.82
			c-0.49,0.59-0.78,1.3-0.89,2.11H78.22z"/>
	</g>
	<g>
		<path class="st3" d="M87.83,42.08V19.33h5.47v2.88c0.86-1.19,1.8-2.05,2.82-2.58c1.01-0.53,2.14-0.79,3.39-0.79
			c1.51,0,2.8,0.31,3.85,0.93c1.05,0.62,1.76,1.53,2.11,2.72c0.73-1.27,1.65-2.2,2.76-2.78c1.11-0.58,2.42-0.87,3.93-0.87
			c2.49,0,4.35,0.73,5.6,2.19c1.24,1.46,1.87,3.5,1.87,6.12v14.92h-5.47V27.85c0-3-1.19-4.5-3.57-4.5c-1.14,0-2.04,0.36-2.72,1.09
			c-0.51,0.57-0.87,1.3-1.07,2.19c-0.2,0.89-0.3,2.03-0.3,3.41v12.04h-5.47V27.85c0-1.51-0.31-2.64-0.93-3.39
			c-0.62-0.74-1.51-1.11-2.68-1.11c-1.14,0-2.05,0.39-2.76,1.18c-0.46,0.54-0.8,1.24-1.01,2.09c-0.22,0.85-0.32,1.99-0.32,3.43
			v12.04H87.83z"/>
	</g>
	<g>
		<path class="st3" d="M129.03,41.03c-1.76-1-3.12-2.39-4.08-4.16c-0.96-1.77-1.44-3.78-1.44-6.02c0-2.08,0.43-4.03,1.28-5.86
			c0.85-1.82,2.13-3.3,3.85-4.44c1.72-1.14,3.82-1.7,6.31-1.7c2.05,0,3.95,0.43,5.68,1.28c1.73,0.85,3.12,2.16,4.18,3.93
			c1.05,1.77,1.58,3.97,1.58,6.59v1.18h-17.19c0.08,0.95,0.36,1.84,0.85,2.68c0.54,1.05,1.26,1.87,2.17,2.45
			c0.91,0.58,1.94,0.87,3.1,0.87c1.24,0,2.31-0.32,3.2-0.95c0.89-0.63,1.53-1.45,1.91-2.45h5.6c-0.73,2.41-2.01,4.36-3.85,5.86
			c-1.84,1.5-4.19,2.25-7.06,2.25C132.81,42.53,130.78,42.03,129.03,41.03z M140.79,27.73c-0.11-0.86-0.39-1.57-0.85-2.11
			c-0.51-0.78-1.19-1.39-2.03-1.8c-0.84-0.42-1.77-0.63-2.8-0.63c-1.03,0-1.95,0.2-2.78,0.61c-0.83,0.41-1.49,1.01-2.01,1.82
			c-0.49,0.59-0.78,1.3-0.89,2.11H140.79z"/>
	</g>
	<g>
		<path class="st3" d="M154.33,41.03c-1.51-1-2.69-2.4-3.53-4.2c-0.84-1.8-1.26-3.85-1.26-6.14c0-2.3,0.42-4.35,1.26-6.14
			c0.84-1.8,2.01-3.2,3.53-4.2c1.51-1,3.26-1.5,5.23-1.5c1.41,0,2.62,0.25,3.63,0.75c1.01,0.5,1.95,1.37,2.82,2.62V11.14h5.47v30.94
			h-5.47V39.2c-0.89,1.24-1.84,2.11-2.84,2.6c-1,0.49-2.2,0.73-3.61,0.73C157.59,42.53,155.84,42.03,154.33,41.03z M165.05,35.84
			c1.09-1.32,1.64-3.04,1.64-5.15s-0.55-3.83-1.64-5.15c-1.09-1.32-2.51-1.99-4.24-1.99c-1.73,0-3.12,0.67-4.18,2.01
			c-1.05,1.34-1.58,3.05-1.58,5.13c0,2.08,0.53,3.79,1.58,5.13c1.05,1.34,2.45,2.01,4.18,2.01
			C162.55,37.82,163.96,37.16,165.05,35.84z"/>
	</g>
	<g>
		<path class="st3" d="M0.85,48.49h0.75l3.36,4.41l3.36-4.41h0.75v8.12H8.22v-6.61l-3.25,4.29l-3.25-4.29v6.61H0.85V48.49z"/>
	</g>
	<g>
		<path class="st3" d="M15.7,55.56c-0.16,0.22-0.36,0.41-0.59,0.58c-0.41,0.29-0.97,0.58-1.73,0.58c-1.52,0-2.78-1.28-2.78-2.9
			c0-1.62,1.28-2.9,2.73-2.9c1.52,0,2.67,1.16,2.67,2.78c0,0.13-0.02,0.22-0.03,0.3l-0.02,0.12l-4.52-0.01
			c0.06,0.99,0.92,1.86,1.97,1.86c0.59,0,1.02-0.23,1.33-0.46c0.17-0.14,0.34-0.29,0.46-0.46L15.7,55.56z M15.18,53.42
			c-0.13-0.99-0.87-1.74-1.86-1.74c-1,0-1.79,0.81-1.91,1.74H15.18z"/>
	</g>
	<g>
		<path class="st3" d="M21.44,55.79c-0.13,0.17-0.29,0.32-0.48,0.46c-0.32,0.23-0.79,0.46-1.44,0.46c-1.51,0-2.73-1.22-2.73-2.9
			c0-1.68,1.22-2.9,2.73-2.9c0.65,0,1.11,0.23,1.44,0.46c0.19,0.14,0.35,0.29,0.48,0.46v-3.36h0.81v8.12h-0.81V55.79z M21.44,53.82
			c0-1.22-0.94-2.15-1.91-2.15c-1.06,0-1.91,0.88-1.91,2.15c0,1.26,0.86,2.15,1.91,2.15C20.51,55.97,21.44,55.04,21.44,53.82z"/>
	</g>
	<g>
		<path class="st3" d="M24.34,48.66c0.29,0,0.52,0.23,0.52,0.52c0,0.29-0.23,0.52-0.52,0.52c-0.29,0-0.52-0.23-0.52-0.52
			C23.82,48.89,24.05,48.66,24.34,48.66z M23.94,51.04h0.81v5.57h-0.81V51.04z"/>
	</g>
	<g>
		<path class="st3" d="M31.07,55.56c-0.17,0.22-0.38,0.41-0.62,0.58c-0.41,0.29-0.97,0.58-1.71,0.58c-1.52,0-2.78-1.28-2.78-2.9
			c0-1.62,1.26-2.9,2.78-2.9c0.73,0,1.29,0.28,1.67,0.56c0.22,0.16,0.42,0.35,0.59,0.55l-0.58,0.58c-0.13-0.17-0.27-0.32-0.43-0.46
			c-0.28-0.23-0.71-0.46-1.25-0.46c-1.04,0-1.97,0.93-1.97,2.15c0,1.22,0.93,2.15,1.97,2.15c0.55,0,0.97-0.23,1.29-0.46
			c0.17-0.14,0.32-0.29,0.45-0.46L31.07,55.56z"/>
	</g>
	<g>
		<path class="st3" d="M35.48,55.85c-0.12,0.16-0.27,0.31-0.44,0.44c-0.31,0.22-0.75,0.43-1.36,0.43c-1.16,0-1.97-0.81-1.97-1.62
			c0-0.93,0.57-1.51,1.62-1.68l2.15-0.35c0-0.82-0.57-1.39-1.39-1.39c-0.5,0-0.88,0.21-1.15,0.41c-0.15,0.13-0.29,0.26-0.42,0.41
			L32,51.97c0.15-0.2,0.34-0.37,0.55-0.52c0.36-0.27,0.86-0.52,1.54-0.52c1.28,0,2.2,0.93,2.2,2.15v3.54h-0.81V55.85z M35.48,53.76
			l-1.91,0.35c-0.7,0.13-1.04,0.46-1.04,0.99c0,0.46,0.41,0.87,1.16,0.87c1.06,0,1.8-0.74,1.8-1.86V53.76z"/>
	</g>
	<g>
		<path class="st3" d="M37.97,48.49h0.81v8.12h-0.81V48.49z"/>
	</g>
	<g>
		<path class="st3" d="M42.96,48.49h0.75l3.36,4.41l3.36-4.41h0.75v8.12h-0.87v-6.61l-3.25,4.29l-3.25-4.29v6.61h-0.87V48.49z"/>
	</g>
	<g>
		<path class="st3" d="M56.48,55.85c-0.12,0.16-0.27,0.31-0.44,0.44c-0.31,0.22-0.75,0.43-1.36,0.43c-1.16,0-1.97-0.81-1.97-1.62
			c0-0.93,0.57-1.51,1.62-1.68l2.15-0.35c0-0.82-0.57-1.39-1.39-1.39c-0.5,0-0.88,0.21-1.15,0.41c-0.15,0.13-0.29,0.26-0.42,0.41
			L53,51.97c0.15-0.2,0.34-0.37,0.55-0.52c0.36-0.27,0.86-0.52,1.54-0.52c1.28,0,2.2,0.93,2.2,2.15v3.54h-0.81V55.85z M56.48,53.76
			l-1.91,0.35c-0.7,0.13-1.04,0.46-1.04,0.99c0,0.46,0.41,0.87,1.16,0.87c1.06,0,1.8-0.74,1.8-1.86V53.76z"/>
	</g>
	<g>
		<path class="st3" d="M58.91,51.04h0.81v0.81c0.12-0.17,0.27-0.32,0.44-0.46c0.31-0.23,0.74-0.46,1.36-0.46
			c1.33,0,2.26,0.93,2.26,2.38v3.31h-0.81V53.3c0-0.99-0.63-1.62-1.51-1.62c-0.99,0-1.74,0.74-1.74,1.86v3.07h-0.81V51.04z"/>
	</g>
	<g>
		<path class="st3" d="M68.77,55.85c-0.12,0.16-0.27,0.31-0.44,0.44c-0.31,0.22-0.75,0.43-1.36,0.43c-1.16,0-1.97-0.81-1.97-1.62
			c0-0.93,0.57-1.51,1.62-1.68l2.15-0.35c0-0.82-0.57-1.39-1.39-1.39c-0.5,0-0.88,0.21-1.15,0.41c-0.15,0.13-0.29,0.26-0.42,0.41
			l-0.52-0.52c0.15-0.2,0.34-0.37,0.55-0.52c0.36-0.27,0.86-0.52,1.54-0.52c1.28,0,2.2,0.93,2.2,2.15v3.54h-0.81V55.85z
			 M68.77,53.76l-1.91,0.35c-0.7,0.13-1.04,0.46-1.04,0.99c0,0.46,0.41,0.87,1.16,0.87c1.06,0,1.8-0.74,1.8-1.86V53.76z"/>
	</g>
	<g>
		<path class="st3" d="M71.56,57.36c0.13,0.17,0.29,0.32,0.46,0.46c0.31,0.23,0.74,0.46,1.33,0.46c1.06,0,1.91-0.87,1.91-2.03v-0.64
			c-0.1,0.16-0.26,0.31-0.43,0.44c-0.31,0.22-0.77,0.43-1.43,0.43c-1.45,0-2.61-1.22-2.61-2.78c0-1.57,1.16-2.78,2.61-2.78
			c0.66,0,1.11,0.22,1.43,0.44c0.17,0.13,0.33,0.28,0.43,0.43v-0.75h0.81v5.22c0,1.57-1.22,2.78-2.73,2.78
			c-0.79,0-1.37-0.29-1.75-0.58c-0.22-0.17-0.42-0.36-0.57-0.58L71.56,57.36z M75.27,53.71c0-1.16-0.81-2.03-1.86-2.03
			c-0.97,0-1.8,0.87-1.8,2.03c0,1.16,0.82,2.03,1.8,2.03C74.46,55.74,75.27,54.87,75.27,53.71z"/>
	</g>
	<g>
		<path class="st3" d="M82.4,55.56c-0.16,0.22-0.36,0.41-0.59,0.58c-0.41,0.29-0.97,0.58-1.73,0.58c-1.52,0-2.78-1.28-2.78-2.9
			c0-1.62,1.28-2.9,2.73-2.9c1.52,0,2.67,1.16,2.67,2.78c0,0.13-0.02,0.22-0.03,0.3l-0.02,0.12l-4.52-0.01
			c0.06,0.99,0.92,1.86,1.97,1.86c0.59,0,1.02-0.23,1.33-0.46c0.17-0.14,0.34-0.29,0.46-0.46L82.4,55.56z M81.88,53.42
			c-0.13-0.99-0.87-1.74-1.86-1.74c-1,0-1.79,0.81-1.91,1.74H81.88z"/>
	</g>
	<g>
		<path class="st3" d="M83.91,51.04h0.81v0.7c0.1-0.15,0.22-0.28,0.37-0.41c0.27-0.2,0.64-0.41,1.19-0.41c0.66,0,1.13,0.26,1.4,0.5
			c0.16,0.14,0.29,0.3,0.39,0.49c0.1-0.19,0.26-0.35,0.43-0.49c0.31-0.24,0.79-0.5,1.48-0.5c1.22,0,2.15,0.82,2.15,2.38v3.31h-0.81
			V53.3c0-1.07-0.57-1.62-1.39-1.62c-0.8,0-1.51,0.7-1.51,1.86v3.07h-0.81V53.3c0-1.06-0.57-1.62-1.39-1.62
			c-0.8,0-1.51,0.7-1.51,1.86v3.07h-0.81V51.04z"/>
	</g>
	<g>
		<path class="st3" d="M98.47,55.56c-0.16,0.22-0.36,0.41-0.59,0.58c-0.41,0.29-0.97,0.58-1.73,0.58c-1.52,0-2.78-1.28-2.78-2.9
			c0-1.62,1.28-2.9,2.73-2.9c1.52,0,2.67,1.16,2.67,2.78c0,0.13-0.02,0.22-0.03,0.3l-0.02,0.12l-4.52-0.01
			c0.06,0.99,0.92,1.86,1.97,1.86c0.59,0,1.02-0.23,1.33-0.46c0.17-0.14,0.34-0.29,0.46-0.46L98.47,55.56z M97.95,53.42
			c-0.13-0.99-0.87-1.74-1.86-1.74c-1,0-1.79,0.81-1.91,1.74H97.95z"/>
	</g>
	<g>
		<path class="st3" d="M99.98,51.04h0.81v0.81c0.12-0.17,0.27-0.32,0.44-0.46c0.31-0.23,0.74-0.46,1.36-0.46
			c1.33,0,2.26,0.93,2.26,2.38v3.31h-0.81V53.3c0-0.99-0.63-1.62-1.51-1.62c-0.99,0-1.74,0.74-1.74,1.86v3.07h-0.81V51.04z"/>
	</g>
	<g>
		<path class="st3" d="M106.94,51.79h-1.04v-0.75h0.64c0.31,0,0.46-0.2,0.46-0.58v-1.28h0.75v1.86h1.22v0.75h-1.22v3.31
			c0,0.59,0.29,0.87,0.75,0.87c0.2,0,0.39-0.03,0.53-0.08c0.08-0.03,0.16-0.06,0.22-0.09v0.75c-0.07,0.03-0.15,0.06-0.23,0.09
			c-0.14,0.05-0.34,0.08-0.56,0.08c-0.96,0-1.53-0.57-1.53-1.62V51.79z"/>
	</g>
</g>
</svg>
